<svg xmlns="http://www.w3.org/2000/svg" viewBox="0 0 21.75 21.75">
    <defs>
        <style>
            .cls-1{fill:#cdd0e9}.cls-2{fill:none}.cls-3{fill:#1a2269}
        </style>
    </defs>
    <g id="ic_eye" transform="translate(-1471 -13999)">
        <rect id="Rectangle_12155" width="21.75" height="21.75" class="cls-1" data-name="Rectangle 12155" rx="4" transform="translate(1471 13999)"/>
        <g id="ic_view" transform="translate(1471 13999)">
            <g id="ic_view-2" data-name="ic_view" transform="translate(3 3)">
                <path id="Path_1413" d="M0 0h16.75v16.75H0z" class="cls-2" data-name="Path 1413"/>
                <path id="Path_1414" d="M8.6 4.5A8.176 8.176 0 0 0 1 9.388a8.176 8.176 0 0 0 7.6 4.888 8.176 8.176 0 0 0 7.6-4.888A8.176 8.176 0 0 0 8.6 4.5zm0 8.146a3.362 3.362 0 0 1-3.455-3.258A3.362 3.362 0 0 1 8.6 6.129a3.362 3.362 0 0 1 3.455 3.259A3.362 3.362 0 0 1 8.6 12.646zm0-5.214a2.014 2.014 0 0 0-2.073 1.956A2.014 2.014 0 0 0 8.6 11.343a2.014 2.014 0 0 0 2.073-1.955A2.014 2.014 0 0 0 8.6 7.433z" class="cls-3" data-name="Path 1414" transform="translate(-.225 -1.013)"/>
            </g>
            <path id="Rectangle_12187" d="M0 0h21.75v21.75H0z" class="cls-2" data-name="Rectangle 12187"/>
        </g>
    </g>
</svg>
