<svg xmlns="http://www.w3.org/2000/svg" viewBox="0 0 12 12">
    <defs>
        <style>
            .cls-1{fill:#585a6f}
        </style>
    </defs>
    <path id="ic_hapus" d="M197 12a6.044 6.044 0 0 1-1.209-.122 5.967 5.967 0 0 1-2.145-.9 6.017 6.017 0 0 1-2.174-2.64 5.973 5.973 0 0 1-.35-1.126 6.059 6.059 0 0 1 0-2.418 5.967 5.967 0 0 1 .9-2.145 6.018 6.018 0 0 1 2.64-2.174 5.969 5.969 0 0 1 1.126-.35 6.058 6.058 0 0 1 2.418 0 5.967 5.967 0 0 1 2.145.9 6.017 6.017 0 0 1 2.174 2.64 5.971 5.971 0 0 1 .35 1.126 6.059 6.059 0 0 1 0 2.418 5.967 5.967 0 0 1-.9 2.145 6.017 6.017 0 0 1-2.64 2.174 5.97 5.97 0 0 1-1.126.35A6.044 6.044 0 0 1 197 12zm-.028-5.029L199.4 9.4l1-1-2.426-2.426 2.426-2.429-1-1-2.426 2.426-2.426-2.426-1 1 2.426 2.426-2.429 2.429 1 1 2.426-2.426z" class="cls-1" transform="translate(-191)"/>
</svg>
