<svg id="SvgjsSvg1001" width="288" height="288" xmlns="http://www.w3.org/2000/svg" version="1.1" xmlns:xlink="http://www.w3.org/1999/xlink" xmlns:svgjs="http://svgjs.com/svgjs"><defs id="SvgjsDefs1002"></defs><g id="SvgjsG1008"><svg xmlns="http://www.w3.org/2000/svg" viewBox="0 0 32 32" width="288" height="288"><g data-name="4. Click" fill="#000000" class="color000 svgShape"><path fill="#2a3593" d="M14,26A12,12,0,1,1,26,14a11.79,11.79,0,0,1-.32,2.73,1,1,0,1,1-1.94-.46,10,10,0,1,0-7.47,7.47,1,1,0,1,1,.46,1.94A11.85,11.85,0,0,1,14,26Z" class="color04009a svgShape"></path><path fill="#2a3593" d="M27,32a1,1,0,0,1-.71-.29L23,28.41l-1.29,1.3a1,1,0,0,1-1,.23,1,1,0,0,1-.66-.83l-1-9a1,1,0,0,1,1.1-1.1l9,1a1,1,0,0,1,.83.66,1,1,0,0,1-.23,1L28.41,23l3.3,3.29a1,1,0,0,1,0,1.42l-4,4A1,1,0,0,1,27,32Zm-4-6a1,1,0,0,1,.71.29L27,29.59,29.59,27l-3.3-3.29a1,1,0,0,1,0-1.42l.53-.53-5.69-.63.63,5.69.53-.53A1,1,0,0,1,23,26Z" class="color04009a svgShape"></path><path fill="#4d9b35" d="M16 21H12a1 1 0 01-1-1V17H8a1 1 0 01-1-1V12a1 1 0 011-1h3V8a1 1 0 011-1h4a1 1 0 011 1v3h3a1 1 0 011 1v4a1 1 0 01-1 1H17v3A1 1 0 0116 21zm-3-2h2V16a1 1 0 011-1h3V13H16a1 1 0 01-1-1V9H13v3a1 1 0 01-1 1H9v2h3a1 1 0 011 1zM2 8H1A1 1 0 011 6H2A1 1 0 012 8zM3 4a1 1 0 01-.71-.29l-1-1A1 1 0 012.71 1.29l1 1a1 1 0 010 1.42A1 1 0 013 4zM7 3A1 1 0 016 2V1A1 1 0 018 1V2A1 1 0 017 3z" class="color77acf1 svgShape"></path></g></svg></g></svg>