<svg xmlns="http://www.w3.org/2000/svg" viewBox="0 0 223.605 66.493">
    <defs>
        <style>
            .cls-1{fill:#1a2268}.cls-2{fill:#171717;font-size:13px;font-family:Roboto-Bold,Roboto}.cls-2,.cls-3{font-weight:700}.cls-3,.cls-7{fill:#4d9b35}.cls-3{font-size:28px;font-family:HelveticaNeue-Bold,Helvetica Neue}.cls-4{fill:#1a2269}.cls-5{fill:#c43d32}.cls-6{fill:#f2c22c}.cls-8{fill:#7b88ff}
        </style>
    </defs>
    <g id="ic_LoginHeader" transform="translate(-190.395 -2539.391)">
        <g id="Group_796" data-name="Group 796" transform="translate(259.153 2554.329)">
            <path id="Path_879" d="M96.187 13.769c0 2.8 1.806 3.612 4.2 3.657 1.806.045 3.521-.632 3.566-2.122.045-1.986-3.25-2.3-6.23-3.205-2.98-.858-5.643-2.122-5.643-5.869 0-4.379 4.153-6.23 7.81-6.23 4.063 0 8.352 1.761 8.216 7h-4.786c.09-2.257-1.58-3.025-3.657-3.025-1.174 0-2.664.542-2.664 1.9-.135 1.9 3.657 2.077 6.727 3.025 3.25.993 5.1 2.844 5.1 5.779 0 4.108-3.07 6.681-8.442 6.681-5.733 0-9.074-2.844-8.894-7.629h4.7z" class="cls-1" data-name="Path 879" transform="translate(-91.485)"/>
            <path id="Rectangle_565" d="M0 0h4.514v14.943H0z" class="cls-1" data-name="Rectangle 565" transform="translate(18.291 5.959)"/>
            <path id="Rectangle_566" d="M0 0h4.514v20.18H0z" class="cls-1" data-name="Rectangle 566" transform="translate(24.114 .722)"/>
            <path id="Path_880" d="M165.675 12.3c5.146 0 7.9 3.341 7.9 7.945 0 4.469-2.754 7.765-7.991 7.765-4.65 0-7.584-3.3-7.584-7.765 0-4.56 2.8-7.945 7.675-7.945m.09 12.189c2.348 0 3.3-1.851 3.3-4.244 0-1.986-.677-4.379-3.16-4.379-2.257 0-3.25 1.761-3.25 4.289-.045 1.941.632 4.334 3.115 4.334" class="cls-1" data-name="Path 880" transform="translate(-127.972 -6.747)"/>
            <path id="Path_881" d="M194.906 17.717c.181-2.528 1.129-3.612 2.438-4.379a10.291 10.291 0 0 1 4.74-1.038c1.49 0 6.5.045 6.5 4.379V23.9c0 1.264.045 2.844.767 3.792h-4.785a5.057 5.057 0 0 1-.271-1.038 7.2 7.2 0 0 1-4.876 1.445c-2.98-.045-4.921-1.58-4.921-4.6 0-4.74 4.56-4.379 8.171-5.056.993-.181 1.4-.361 1.4-1.309 0-1.264-1.264-1.535-2.257-1.49-1.941.09-2.212.858-2.348 2.167h-4.56zm6.275 7.088c2.3 0 3.025-1.264 2.934-3.928a14 14 0 0 1-2.934.587c-1.219.226-2.077.677-2.077 1.761-.045 1.309.993 1.58 2.077 1.58" class="cls-1" data-name="Path 881" transform="translate(-147.994 -6.747)"/>
            <path id="Path_882" d="M229.745 12.706h4.289v1.445h.045a5.209 5.209 0 0 1 4.334-1.851c.813 0 3.3.316 4.063 2.122a5.217 5.217 0 0 1 4.514-2.122c4.424 0 5.372 3.16 5.327 5.237v10.112h-4.56V18.44c0-1.851-.858-2.393-2.077-2.393-1.986 0-2.257 1.535-2.393 2.98v8.668h-4.56V18.62c0-1.9-.677-2.573-1.986-2.573a2.472 2.472 0 0 0-2.483 2.618v8.984H229.7V12.706z" class="cls-1" data-name="Path 882" transform="translate(-167.303 -6.747)"/>
            <path id="Path_883" d="M136.3 3.448a2.36 2.36 0 0 1-2.352 2.352 2.348 2.348 0 0 1 0-4.7 2.39 2.39 0 0 1 2.352 2.348" class="cls-1" data-name="Path 883" transform="translate(-113.49 -.603)"/>
        </g>
        <text id="User_Management_System" class="cls-2" data-name="User Management System" transform="translate(259 2598.473)">
            <tspan x="0" y="0">User Management System</tspan>
        </text>
        <text id="UMS" class="cls-3" transform="translate(347.599 2575)">
            <tspan x="0" y="0">UMS</tspan>
        </text>
        <g id="Group_9540" data-name="Group 9540" transform="translate(-113.304 2153.709)">
            <path id="Rectangle_12044" d="M0 0h20.906v2.373H0z" class="cls-4" data-name="Rectangle 12044" transform="rotate(45 -320.394 616.925)"/>
            <path id="Rectangle_12045" d="M0 0h20.906v2.373H0z" class="cls-4" data-name="Rectangle 12045" transform="rotate(90 -35.924 375)"/>
            <path id="Rectangle_12046" d="M0 0h15.033v2.373H0z" class="cls-4" data-name="Rectangle 12046" transform="rotate(135 82.583 272.516)"/>
            <path id="Path_35434" d="M5.828.1a6.148 6.148 0 0 1 6.056 6.236 6.148 6.148 0 0 1-6.056 6.236A6.148 6.148 0 0 1-.229 6.338 6.148 6.148 0 0 1 5.828.1z" class="cls-4" data-name="Path 35434" transform="rotate(45 -321.892 638.271)"/>
            <circle id="Ellipse_1562" cx="9.074" cy="9.074" r="9.074" class="cls-4" data-name="Ellipse 1562" transform="rotate(45 -345.9 621.122)"/>
            <circle id="Ellipse_1563" cx="9.956" cy="9.956" r="9.956" class="cls-4" data-name="Ellipse 1563" transform="rotate(45 -332.36 587.075)"/>
            <circle id="Ellipse_1560" cx="12.018" cy="12.018" r="12.018" class="cls-4" data-name="Ellipse 1560" transform="rotate(45 -297.487 598.604)"/>
            <path id="Path_35435" d="M3.916.1a4.285 4.285 0 0 1 4.221 4.347 4.285 4.285 0 0 1-4.221 4.346A4.285 4.285 0 0 1-.305 4.447 4.285 4.285 0 0 1 3.916.1z" class="cls-5" data-name="Path 35435" transform="rotate(45 -325.024 639.569)"/>
            <circle id="Ellipse_1565" cx="6.504" cy="6.504" r="6.504" class="cls-6" data-name="Ellipse 1565" transform="rotate(45 -350.286 622.939)"/>
            <circle id="Ellipse_1566" cx="7.753" cy="7.753" r="7.753" class="cls-7" data-name="Ellipse 1566" transform="rotate(45 -336.12 588.633)"/>
            <circle id="Ellipse_1567" cx="9.018" cy="9.018" r="9.018" class="cls-8" data-name="Ellipse 1567" transform="rotate(45 -302.607 600.725)"/>
        </g>
    </g>
</svg>
