<svg xmlns="http://www.w3.org/2000/svg" xmlns:xlink="http://www.w3.org/1999/xlink" width="21.752" height="21.752" viewBox="0 0 21.752 21.752"><defs><clipPath id="a"><rect width="21.752" height="21.752" fill="none"/></clipPath></defs><g clip-path="url(#a)"><rect width="21.752" height="21.752" rx="4" fill="#f8e094"/><g transform="translate(3.238 3.04)"><g transform="translate(-0.082 -0.014)"><path d="M0,0H15.711V15.711H0Z" fill="none"/></g><g transform="translate(-0.238 -0.04)"><path d="M0,11.036A3.206,3.206,0,0,1,2.822,7.854V6.143h.763v1.71A3.2,3.2,0,1,1,0,11.036ZM9.026,9.969a2.907,2.907,0,0,1,.6-1.777L5.89,4.452l.54-.54,3.74,3.74A2.921,2.921,0,1,1,9.026,9.969ZM10.63,2.4h-4V1.639h4a1.946,1.946,0,0,1,3.866.368,1.945,1.945,0,0,1-3.861.4Z" transform="translate(0.82 1.874)" fill="#eb9a00"/><circle cx="4.25" cy="4.25" r="4.25" transform="translate(-0.327 -0.251)" fill="#eb9a00"/></g></g></g></svg>