<svg xmlns="http://www.w3.org/2000/svg" id="ic_Page" viewBox="0 0 24 24">
    <defs>
        <style>
            .cls-1{fill:none}
        </style>
    </defs>
    <g id="Bounding_Boxes">
        <path id="Path_34607" d="M0 0h24v24H0z" class="cls-1" data-name="Path 34607"/>
    </g>
    <path id="Union_10" d="M.655 20A.621.621 0 0 1 0 19.345V.656A.621.621 0 0 1 .655 0h9.81v3.67a.949.949 0 0 0 .947.946h3.669v14.729a.621.621 0 0 1-.655.655zM2 17h11v-1H2zm0-3h11v-1H2zm0-3h11v-1H2zm10.042-7.44a.521.521 0 0 1-.52-.52V.543L14.54 3.56z" data-name="Union 10" transform="translate(4 2)"/>
</svg>
