<svg xmlns="http://www.w3.org/2000/svg" id="round-move_to_inbox-24px" viewBox="0 0 24 24">
    <defs>
        <style>
            .cls-1{fill:none}.cls-2{fill:#171717}
        </style>
    </defs>
    <g id="Bounding_Boxes">
        <path id="Path_34607" d="M0 0h24v24H0z" class="cls-1" data-name="Path 34607"/>
    </g>
    <g id="Group_9274" data-name="Group 9274" transform="translate(152 -3074.094)">
        <g id="Group_9274-2" data-name="Group 9274" transform="translate(-150 3074.094)">
            <path id="Union_10_4_" d="M49.316 452.386A8.206 8.206 0 0 1 47.4 447.5a4.863 4.863 0 1 1 9.725-.082v.082a8.155 8.155 0 0 1-1.916 4.883s-1.628 1.751-3.07 1.751-2.823-1.748-2.823-1.748zm.227-6.1l-1.484 1.051v.165a7.385 7.385 0 0 0 2.143 4.883 3 3 0 0 0 2.06.927 3.086 3.086 0 0 0 2.06-.927 7.435 7.435 0 0 0 2.143-4.9 5.149 5.149 0 0 0-.144-1.113 3.561 3.561 0 0 1-3.812-.206 2.761 2.761 0 0 0-2.967.124z" class="cls-2" transform="translate(-42.314 -442.599)"/>
            <path id="Path_873" d="M65 501.6h2.225l-.577.845h-1.03z" class="cls-2" data-name="Path 873" transform="translate(-56.288 -489.443)"/>
            <path id="Path_874" d="M65.321 506.5h.968l1.216 5.955a.249.249 0 0 1-.062.206l-1.257 1.03a.188.188 0 0 1-.247 0l-1.257-.968a.224.224 0 0 1-.082-.185z" class="cls-2" data-name="Path 874" transform="translate(-55.971 -493.333)"/>
            <path id="Path_875" d="M33.351 513.5c-6.841 0-9.969-2.58-9.969-3.446a13.567 13.567 0 0 1 1.15-5.105 5.8 5.8 0 0 1 2-2.122 6.981 6.981 0 0 1 2.905-1.01h.185l.082.185c0 .021.7 1.71 1.525 3.379 1.545 3.152 2.1 3.235 2.163 3.235.1 0 .7-.165 2.287-3.276.845-1.69 1.628-3.317 1.648-3.338l.082-.206.227.062a6.618 6.618 0 0 1 4.533 3.256 11.859 11.859 0 0 1 1.2 4.457c-.018.889-3.156 3.929-10.018 3.929z" class="cls-2" data-name="Path 875" transform="translate(-23.383 -489.602)"/>
        </g>
        <g id="Group_9275" data-name="Group 9275" transform="translate(-143.043 3081.61)">
            <path id="Path_35411" d="M-98.006 3128.606c.261.036-.293-.524-1.012-.506s-.737.506-1.252.506-.65-.2-.65-.2.361.833 1.081.849a1.262 1.262 0 0 0 1.087-.35c.299-.216.484-.335.746-.299z" class="cls-2" data-name="Path 35411" transform="translate(100.921 -3128.099)"/>
            <path id="Path_35412" d="M-100.855 3128.606c-.261.036.293-.524 1.012-.506s.737.506 1.252.506.65-.2.65-.2-.361.834-1.081.849a1.262 1.262 0 0 1-1.087-.35c-.299-.215-.485-.334-.746-.299z" class="cls-2" data-name="Path 35412" transform="translate(103.901 -3128.1)"/>
        </g>
    </g>
</svg>
