<svg xmlns="http://www.w3.org/2000/svg" viewBox="0 0 20.189 20">
    <defs>
        <style>
            .cls-1{fill:#171717}
        </style>
    </defs>
    <path id="ic_SignOut" d="M1.01 1598a1.01 1.01 0 0 1-1.01-1.01v-17.98a1.01 1.01 0 0 1 1.01-1.01h10.323a1.01 1.01 0 0 1 1.01 1.01v7.98H5.556a.505.505 0 0 0-.505.505v1.01a.505.505 0 0 0 .505.505h6.788v-2.02h4.546l-2.385-2.364a.495.495 0 0 1 0-.717l.435-.394a.545.545 0 0 1 .727 0l4.363 4.131a.484.484 0 0 1 0 .717l-4.364 4.121a.545.545 0 0 1-.727 0l-.424-.384a.485.485 0 0 1 0-.717l2.381-2.374h-4.553v7.98a1.01 1.01 0 0 1-1.01 1.01z" class="cls-1" transform="translate(0 -1578)"/>
</svg>
