<svg xmlns="http://www.w3.org/2000/svg" id="ic_User" viewBox="0 0 24 24">
    <defs>
        <style>
            .cls-1{fill:none}.cls-2{fill:#171717}
        </style>
    </defs>
    <g id="Bounding_Boxes">
        <path id="Path_34605" d="M0 0h24v24H0z" class="cls-1" data-name="Path 34605"/>
    </g>
    <g id="Rounded">
        <path id="Path_34606" d="M12 2a10 10 0 1 0 10 10A10 10 0 0 0 12 2zm3.61 6.34a1.93 1.93 0 1 1-1.93 1.93 1.925 1.925 0 0 1 1.93-1.93zm-6-1.58a2.36 2.36 0 1 1-2.36 2.36 2.364 2.364 0 0 1 2.36-2.36zm0 9.13v3.75a8.007 8.007 0 0 1-5.14-4.96c1.05-1.12 3.67-1.69 5.14-1.69a10.172 10.172 0 0 1 1.9.22 3.022 3.022 0 0 0-1.9 2.68zM12 20a6.851 6.851 0 0 1-.79-.04v-4.07c0-1.42 2.94-2.13 4.4-2.13a7.089 7.089 0 0 1 3.84 1.15A8.019 8.019 0 0 1 12 20z" class="cls-2" data-name="Path 34606"/>
    </g>
</svg>
