<svg xmlns="http://www.w3.org/2000/svg" width="257.405" height="362.688" viewBox="0 0 257.405 362.688">
  <g id="man-with-meds" transform="translate(-556.907 -597.04)">
    <g id="Group_11486" data-name="Group 11486" transform="translate(556.907 839.529)">
      <ellipse id="Ellipse_2692" data-name="Ellipse 2692" cx="59.701" cy="9.04" rx="59.701" ry="9.04" transform="translate(0 68.572)" fill="#85ccd5"/>
      <g id="Group_11474" data-name="Group 11474" transform="translate(0.01 5)">
        <ellipse id="Ellipse_2696" data-name="Ellipse 2696" cx="36.289" cy="36.289" rx="36.289" ry="36.289" fill="#e0e0e0"/>
        <path id="Path_638531" data-name="Path 638531" d="M449.146,785.165a31.593,31.593,0,0,0,24.7-51.309,29.838,29.838,0,0,0-5.01-5.01,31.595,31.595,0,0,0-44.4,44.4,30.349,30.349,0,0,0,5.01,5.022A31.407,31.407,0,0,0,449.146,785.165Z" transform="translate(-412.853 -717.269)" fill="#fff"/>
        <path id="Path_638532" data-name="Path 638532" d="M428.45,777.265l44.4-44.414a29.837,29.837,0,0,0-5.01-5.01l-44.4,44.4A30.345,30.345,0,0,0,428.45,777.265Z" transform="translate(-411.858 -716.264)" fill="#e0e0e0"/>
      </g>
      <g id="Group_11475" data-name="Group 11475" transform="translate(44.982 36.628)">
        <ellipse id="Ellipse_2697" data-name="Ellipse 2697" cx="39.72" cy="21.215" rx="39.72" ry="21.215" fill="#fbc02d"/>
        <ellipse id="Ellipse_2698" data-name="Ellipse 2698" cx="33.019" cy="17.635" rx="33.019" ry="17.635" transform="translate(8.75 2.253)" fill="#fdd835"/>
        <path id="Path_638533" data-name="Path 638533" d="M377.917,754.456c-.918,4.2,5.5,9.177,14.341,11.1s16.746.082,17.663-4.122-5.5-9.177-14.341-11.1S378.833,750.252,377.917,754.456Z" transform="translate(-340.595 -744.184)" fill="#ffee58"/>
        <path id="Path_638534" data-name="Path 638534" d="M410.571,758.209c.609,1.933,4.4,2.463,8.459,1.183s6.863-3.882,6.256-5.814-4.4-2.464-8.459-1.185S409.963,756.277,410.571,758.209Z" transform="translate(-394.185 -743.822)" fill="#ffee58"/>
      </g>
    </g>
    <g id="Group_11483" data-name="Group 11483" transform="translate(1)">
      <g id="Group_11485" data-name="Group 11485" transform="translate(-6.822 1553.885) rotate(-90)">
        <ellipse id="Ellipse_2699" data-name="Ellipse 2699" cx="23.333" cy="3.878" rx="23.333" ry="3.878" transform="translate(631.8 747.926) rotate(90)" fill="#85ccd5"/>
        <g id="Group_11485-2" data-name="Group 11485">
          <path id="Path_638547" data-name="Path 638547" d="M715.232,786.995H630.869a3.521,3.521,0,0,1-3.518-3.518V759.593a3.517,3.517,0,0,1,3.518-3.518h84.369a8.441,8.441,0,0,1,8.045,5.555,4.988,4.988,0,0,0,4.64,3.3,4.828,4.828,0,0,0,1.5-.238,21.107,21.107,0,0,1,8.641-.947l32.832,3.21a4.6,4.6,0,0,1,0,9.149l-32.832,3.2a21.108,21.108,0,0,1-8.641-.947,4.938,4.938,0,0,0-6.139,3.067A8.458,8.458,0,0,1,715.232,786.995Z" fill="#fff"/>
          <rect id="Rectangle_12687" data-name="Rectangle 12687" width="76.995" height="22.141" transform="translate(631.079 760.461)" fill="#4db6ac"/>
          <path id="Path_638548" data-name="Path 638548" d="M678.132,767.206c-20.96,0-37.952-1.054-37.952-2.355s16.992-2.355,37.952-2.355,37.953,1.055,37.953,2.355S699.093,767.206,678.132,767.206Z" fill="#fff" opacity="0.5"/>
          <path id="Path_638549" data-name="Path 638549" d="M699.3,786.995H649.448v-12.7a3.25,3.25,0,0,1,3.249-3.249h43.354a3.249,3.249,0,0,1,3.248,3.249Z" fill="#fff"/>
          <path id="Path_638550" data-name="Path 638550" d="M691.354,786.995h-15.94v-7.142a2.528,2.528,0,0,1,2.527-2.528h10.892a2.527,2.527,0,0,1,2.521,2.528Z" fill="#37474f"/>
          <path id="Path_638551" data-name="Path 638551" d="M670.1,786.995h-5.047v-7.142a2.526,2.526,0,0,1,2.52-2.528h.007a2.526,2.526,0,0,1,2.52,2.528Z" fill="#37474f"/>
          <path id="Path_638552" data-name="Path 638552" d="M661.168,786.995h-5.054v-7.142a2.527,2.527,0,0,1,2.521-2.528h.012a2.527,2.527,0,0,1,2.521,2.528Z" fill="#37474f"/>
        </g>
      </g>
      <ellipse id="Ellipse_2688" data-name="Ellipse 2688" cx="63.175" cy="7.861" rx="63.175" ry="7.861" transform="translate(639.342 944.005)" fill="#85ccd5"/>
      <path id="Path_638325" data-name="Path 638325" d="M579.777,687.519s-30.528-34.109-33.222-37.425S533.96,618.45,531.87,610.668c-1.513-5.645,11.606-5.792,11.606-5.792s12.944,31.236,15.536,34.242,39.073,30.53,39.073,30.53Z" transform="translate(96.683 72.483)" fill="#f3f4f9"/>
      <path id="Path_638326" data-name="Path 638326" d="M551.388,598.015c2.025.608-1.864,11.818-1.864,11.818-1.833,4.066-5.182,5.031-9.33,4.354,0,0-17.89-14.47-12.5-14.47s18.1,4.313,18.1,4.313S549.317,597.393,551.388,598.015Z" transform="translate(91.808 65.843)" fill="#ed9d66"/>
      <path id="Path_638327" data-name="Path 638327" d="M583.155,679.5s27.137-26.06,29.82-29.359,21.651-30.969,23.71-35.961-8.812-11.659-10.925-8.168-20.415,30.93-22.994,33.92-29.828,19.415-29.828,19.415Z" transform="translate(136.31 72.647)" fill="#f3f4f9"/>
      <path id="Path_638328" data-name="Path 638328" d="M599.358,599.327c-2.025.606,1.866,11.816,1.866,11.816,1.833,4.067,5.18,5.031,9.33,4.354,0,0,17.794-13.156,12.4-13.156s-18,3-18,3S601.432,598.705,599.358,599.327Z" transform="translate(161.166 67.105)" fill="#ed9d66"/>
      <path id="Path_638361" data-name="Path 638361" d="M575.985,755.516c0,2.529-19.691,1.739-20.007-.449s3.712-5.466,3.443-10.142c-.438-11.231,6.086-16.293,10.146-1.052C570.283,746.675,575.985,752.442,575.985,755.516Z" transform="translate(119.975 197.039)" fill="#ebebeb"/>
      <path id="Path_638362" data-name="Path 638362" d="M602.591,755.1c-.041,1.868-28.8,1.9-29.109-.292s1.477-4.993,1.209-9.667c-.437-11.233,8.06-16.421,12.12-1.181.359,1.4,6.5,5.3,10.144,6.587C601.773,752.262,602.61,754.167,602.591,755.1Z" transform="translate(136.796 197.178)" fill="#ebebeb"/>
      <path id="Path_638363" data-name="Path 638363" d="M575.1,754.871c-.039,1.87-18.5,1.558-18.816-.63s2.17-5.08,1.9-9.754c-.437-11.233,7.044-16.709,11.1-1.469C570,745.82,575.138,753,575.1,754.871Z" transform="translate(120.257 196.382)" fill="#1a2268"/>
      <path id="Path_638364" data-name="Path 638364" d="M602.089,754.52c-.041,1.87-28.2,1.758-28.521-.43s.714-4.929.445-9.6c-.437-11.233,9.2-16.709,13.262-1.469.357,1.4,5.374,6.118,9.014,7.409C601.11,752.138,602.111,753.582,602.089,754.52Z" transform="translate(136.858 196.382)" fill="#1a2268"/>
      <path id="Path_638365" data-name="Path 638365" d="M605.27,797.167c.045-1.464,2.225-4.132,2.333-6.063.907-16.485,6.516-45.618,7.45-50.594s-4.976-41.98-13.585-62.839l-36.422-9.895a14.889,14.889,0,0,0,1.4,5.247l-12.334.681c-4.735,24.1.942,52.556.618,68.985-.086,4.383-1.866,12.75-1.556,22.079.235,7.04,5.682,20.4,6.836,30.64.2,1.784-2.205,4.831-1.866,6.855s3.928,5.609,3.928,5.609c2.8-5.142,7.067-4.364,11.1-1.469,0,0,2.356-.906,2.354-2.737-.006-1.8-1.289-5.57-1.4-8.57-.546-14.908-2.335-34.846-.334-43.947,4.256-19.344,3.606-50.174,6.742-50.131s16.548,40.748,16.124,43.658c-.5,3.4-4.956,12.6-5.16,18.1-.23,6.21.783,20.317,1.489,32.837.122,2.182-2.023,6.22-1.711,8.551s3.42,5.288,3.42,5.288c7.154,0,12.869-3.257,13.528-4.666a6.5,6.5,0,0,0-.467-3.265C606.972,799.943,605.223,798.7,605.27,797.167Z" transform="translate(116.372 132.997)" fill="#1a2268"/>
      <path id="Path_638366" data-name="Path 638366" d="M556.527,699.385c1.383-2.609,2.419-10.552,2.419-12.767,0-1.079-7.275-46.921-4.146-49.845s7.081-1.68,12.288-4.782c7.921-4.721,18.463.147,18.463.147s6.64,4.207,19.256,2.221c0,0,2.005,31.941-2.2,43.24-2.143,5.751-.035,20.637.208,23.094s1.293,10.287.524,11.3c.094,1.207.163,1.9.163,1.9s-24.814,6.565-46.925-7.625c-.3.135-.49.2-.49.2S556.131,700.13,556.527,699.385Z" transform="translate(118.108 96.587)" fill="#1883de"/>
      <path id="Path_638367" data-name="Path 638367" d="M604.167,674.7c-7.487.412-27.049,4.933-49.162-6.565-1.193-.62-1.483,2.674-.553,3.351.124.09,22.76,13.526,49.913,6.895C605.5,678.1,605.6,674.619,604.167,674.7Z" transform="translate(117.995 133.267)" fill="#263238"/>
      <path id="Path_638368" data-name="Path 638368" d="M570.306,636.177c6.838,26.023,8.8,59.941,7.269,64.623-.616,1.885-4.33,1.817-5.031.01s1.77-28.6-5.845-64.413C567.858,633.992,569.056,633.68,570.306,636.177Z" transform="translate(130.308 100.929)" fill="#1a2268"/>
      <path id="Path_638369" data-name="Path 638369" d="M558.134,678.164a112.772,112.772,0,0,1-2.286,30.685c-3.591,16.974-6.869,57.463-6.528,60.063s18.932,5.875,24.155,2.609,5.386-106.686-6.167-139.872l-16.164,4.619Z" transform="translate(113.564 98.24)" fill="#f3f4f9"/>
      <path id="Path_638370" data-name="Path 638370" d="M565.919,621.781c.787,2.576-.175,5.151-2.145,5.751s-4.2-1-4.99-3.577.175-5.152,2.146-5.753S565.135,619.2,565.919,621.781Z" transform="translate(122.43 85.182)" fill="#ed9d66"/>
      <path id="Path_638371" data-name="Path 638371" d="M569.479,621.614c-.885,2.545-.023,5.154,1.921,5.831s4.24-.838,5.123-3.383.026-5.154-1.921-5.831S570.362,619.07,569.479,621.614Z" transform="translate(132.647 85.177)" fill="#ed9d66"/>
      <path id="Path_638372" data-name="Path 638372" d="M561.462,642.553h17.463l0-.023c-.981-2.988-2.48-20.616-2.48-20.616l-14.645,7.84S562.561,637.907,561.462,642.553Z" transform="translate(125.269 88.875)" fill="#e29059"/>
      <path id="Path_638373" data-name="Path 638373" d="M560.315,614.665c4.25-5.982,20.09-5.541,22.833.222s-2.553,29.78-3.891,30.852-12.1,1.338-13.609-.228S556.928,619.431,560.315,614.665Z" transform="translate(123.304 77.767)" fill="#ed9d66"/>
      <path id="Path_638374" data-name="Path 638374" d="M560.709,629.945c1.187.023,1.434-13.046,3.426-13.886s6.987,2.111,9.4,2.158,5.672-2.765,7.719-1.183,1.479,10.974,2.778,11.878,8.457-19.772-11.08-20.151S559.522,629.921,560.709,629.945Z" transform="translate(122.78 76.217)" fill="#37474f"/>
      <path id="Path_638375" data-name="Path 638375" d="M573.6,634.406a6.4,6.4,0,0,1-1.548,4.27c-1.1-1.079-2.313-.852-3.606.22a8.872,8.872,0,0,1-3.555-3.542l4.279-3.508h1.941Z" transform="translate(128.565 98.43)" fill="#1a2268"/>
      <path id="Path_638376" data-name="Path 638376" d="M571.794,630.161l2.433,2.57a5.748,5.748,0,0,1-3.067,6.775c-.657-3.029-1.662-4.156-3.1-6.039C570.581,633.336,571.35,632.007,571.794,630.161Z" transform="translate(131.615 96.809)" fill="#81d4fa"/>
      <path id="Path_638377" data-name="Path 638377" d="M573.429,634.234a13.355,13.355,0,0,0-4.6,6.759c-3.212-.775-7.156-4.98-8.374-8.247l2.531-3.383C567.133,633.059,569.68,634.159,573.429,634.234Z" transform="translate(124.303 96.042)" fill="#81d4fa"/>
      <path id="Path_638378" data-name="Path 638378" d="M585.477,770.1c1.116.861,10.68,1.491,11.668-.324S587.421,723.49,587.084,714c-.455-12.7-.7-34.764.12-44.166s-.3-39.135-.3-39.135l-13.544,2.935s6.754,6.679,5.929,44.117S581.849,767.3,585.477,770.1Z" transform="translate(136.715 97.327)" fill="#f3f4f9"/>
      <path id="Path_638379" data-name="Path 638379" d="M562.132,668.625a23.627,23.627,0,0,1-8.751-1.254s-2.515,17.245-1.634,18.353c.736.93,8.729,2.249,9.777,1.45C562.776,686.225,562.132,668.625,562.132,668.625Z" transform="translate(115.742 132.608)" fill="#cad3db"/>
      <path id="Path_638380" data-name="Path 638380" d="M577.76,668.671s4.766-.383,6.506-1.348c0,0,.7,17.3-.182,18.41-.736.928-4.668,2.286-5.715,1.487C577.117,686.271,577.76,668.671,577.76,668.671Z" transform="translate(140.79 132.562)" fill="#cad3db"/>
      <path id="Path_638381" data-name="Path 638381" d="M580.267,670.3a115.708,115.708,0,0,0,2.052-22.972c-.022-.828-3.536-1.852-3.585-2.678-.047-.765,3.373-1.332,3.3-2.088-.208-2.121-2.105-11.761-2.284-12.367s-7.095,2.825-6.846,3.789S579.213,654.321,580.267,670.3Z" transform="translate(136.272 96.777)" fill="#cad3db"/>
      <path id="Path_638382" data-name="Path 638382" d="M567.948,669.2a151.291,151.291,0,0,0-7.917-22.672c-.343-.755,2.292-2.18,2.139-2.994-.143-.754-3.255-.561-3.495-1.283-1.01-3.065-3.222-11.751-3.2-12.383s6.033,2.407,6.406,3.33C564.259,639.062,569.916,651.951,567.948,669.2Z" transform="translate(119.511 96.447)" fill="#cad3db"/>
    </g>
    <g id="Group_11446" data-name="Group 11446" transform="translate(585.814 597.04)">
      <path id="Path_638383" data-name="Path 638383" d="M731.472,567.784c0,10.5-4.86,20.073-12.651,27.019a45.868,45.868,0,0,1-30.436,11.23H546.062c-23.715,0-43.087-17.227-43.087-38.249,0-10.5,4.826-20.073,12.65-27.019a45.94,45.94,0,0,1,30.437-11.229H688.386C712.1,529.536,731.472,546.763,731.472,567.784Z" transform="translate(-502.975 -529.536)" fill="#85ccd5"/>
      <path id="Path_638384" data-name="Path 638384" d="M620.718,529.536H546.062a45.94,45.94,0,0,0-30.437,11.229c-7.825,6.946-12.65,16.523-12.65,27.019,0,21.022,19.372,38.249,43.087,38.249h74.655Z" transform="translate(-502.975 -529.536)" fill="#b5dbe0"/>
      <path id="Path_638385" data-name="Path 638385" d="M688.5,547.178H537.621c-3.458,0-6.287-2.512-6.287-5.581h0c0-3.07,2.829-5.581,6.287-5.581H688.5c3.458,0,6.287,2.511,6.287,5.581h0C694.789,544.666,691.96,547.178,688.5,547.178Z" transform="translate(-497.921 -529.239)" fill="#fff" opacity="0.5"/>
    </g>
  </g>
</svg>
