<svg xmlns="http://www.w3.org/2000/svg" width="265.125" height="308.617" viewBox="0 0 265.125 308.617">
  <g id="women-with-meds" transform="translate(-908.91 -328.007)">
    <g id="Group_11481" data-name="Group 11481" transform="translate(908.91 529.948)">
      <path id="Path_638535" data-name="Path 638535" d="M467.053,819.908c0,3.9,43.809,7.057,97.85,7.057s97.85-3.159,97.85-7.057-43.809-7.057-97.85-7.057S467.053,816.011,467.053,819.908Z" transform="translate(-467.053 -749.062)" fill="#85ccd5"/>
      <g id="Group_11477" data-name="Group 11477" transform="translate(70.867 0)">
        <ellipse id="Ellipse_2693" data-name="Ellipse 2693" cx="16.535" cy="16.535" rx="16.535" ry="16.535" transform="translate(5.297 37.94) rotate(-99.217)" fill="#9ccc65"/>
        <path id="Path_638521" data-name="Path 638521" d="M533.418,784.284a14.393,14.393,0,0,0,23.377,11.254,13.554,13.554,0,0,0,2.284-2.282,14.4,14.4,0,0,0-20.23-20.23,13.794,13.794,0,0,0-2.289,2.282A14.31,14.31,0,0,0,533.418,784.284Z" transform="translate(-528.849 -765.313)" fill="#c5e1a5"/>
        <path id="Path_638522" data-name="Path 638522" d="M535.7,774.445l20.236,20.23a13.551,13.551,0,0,0,2.284-2.282l-20.23-20.23A13.8,13.8,0,0,0,535.7,774.445Z" transform="translate(-527.988 -764.45)" fill="#9ccc65"/>
      </g>
      <g id="Group_11478" data-name="Group 11478" transform="translate(2.269 16.243)">
        <ellipse id="Ellipse_2694" data-name="Ellipse 2694" cx="46.764" cy="24.976" rx="46.764" ry="24.976" fill="#7986cb"/>
        <ellipse id="Ellipse_2695" data-name="Ellipse 2695" cx="38.873" cy="20.762" rx="38.873" ry="20.762" transform="translate(10.302 2.653)" fill="#9fa8da"/>
        <path id="Path_638523" data-name="Path 638523" d="M548.212,788.705c-1.08,4.95,6.479,10.8,16.884,13.073s19.715.1,20.8-4.853-6.48-10.8-16.884-13.072S549.292,783.756,548.212,788.705Z" transform="translate(-504.272 -776.612)" fill="#c5cae9"/>
        <path id="Path_638524" data-name="Path 638524" d="M580.866,792.747c.717,2.275,5.175,2.9,9.959,1.395s8.08-4.572,7.365-6.847-5.175-2.9-9.959-1.395S580.149,790.472,580.866,792.747Z" transform="translate(-561.575 -775.808)" fill="#c5cae9"/>
      </g>
      <g id="Group_11479" data-name="Group 11479" transform="translate(95.368 37.548)">
        <path id="Path_638525" data-name="Path 638525" d="M473.564,813.215a17.269,17.269,0,0,0,17.227,17.227h56.9a17.227,17.227,0,0,0,0-34.455h-56.9A17.278,17.278,0,0,0,473.564,813.215Z" transform="translate(-473.564 -795.988)" fill="#e57373"/>
        <path id="Path_638526" data-name="Path 638526" d="M477.568,811.708a11.788,11.788,0,0,0,11.714,11.715h56.9a11.715,11.715,0,0,0,0-23.429h-56.9A11.731,11.731,0,0,0,477.568,811.708Z" transform="translate(-472.061 -794.473)" fill="#ef9a9a"/>
        <path id="Path_638527" data-name="Path 638527" d="M503.678,799.993l.014,23.429h8.338V799.993Z" transform="translate(-462.173 -794.473)" fill="#e57373"/>
      </g>
      <g id="Group_11480" data-name="Group 11480" transform="translate(61.048 8.683)">
        <path id="Path_638528" data-name="Path 638528" d="M508.363,831.315a17.27,17.27,0,0,0,23.9,4.733l47.288-31.654a17.227,17.227,0,0,0-19.165-28.632L513.1,807.416A17.278,17.278,0,0,0,508.363,831.315Z" transform="translate(-505.468 -772.867)" fill="#fff"/>
        <path id="Path_638529" data-name="Path 638529" d="M505.468,792.364l24.806-16.6a17.227,17.227,0,0,1,19.165,28.632l-24.8,16.6Z" transform="translate(-475.357 -772.867)" fill="#29b6f6"/>
        <path id="Path_638530" data-name="Path 638530" d="M523.934,814.112l50.131-33.558a2.52,2.52,0,0,0,.69-3.487h0a2.52,2.52,0,0,0-3.487-.691l-50.131,33.558a2.52,2.52,0,0,0-.69,3.487h0A2.52,2.52,0,0,0,523.934,814.112Z" transform="translate(-513.529 -771.699)" fill="#fff" opacity="0.5"/>
      </g>
    </g>
    <g id="Group_11152" data-name="Group 11152" transform="translate(1031.775 342.178)">
      <path id="Path_638543" data-name="Path 638543" d="M1720.941-2750.871s-3.454,11.459-6.66,13.135-32.228,0-32.228,0l3.6,9.426s39.526,3.145,42.188,0,3.869-15.088,3.869-15.088Z" transform="translate(-1674.052 2835.017)" fill="#e2b6a9"/>
      <path id="Path_638542" data-name="Path 638542" d="M1645.5-2788.771c7.956,1.673,10.931,4.7,10.66,13.672s-2.313,35.18-3.168,37.048S1624.9-2752.3,1624.1-2754.3s6.416-16.107,6.986-20.8S1637.545-2790.443,1645.5-2788.771Z" transform="translate(-1580.505 2840.443)" fill="#d2dee8"/>
      <ellipse id="Ellipse_2687" data-name="Ellipse 2687" cx="47.93" cy="7.023" rx="47.93" ry="7.023" transform="translate(46.4 280.401)" fill="#85ccd5"/>
      <path id="Path_638392" data-name="Path 638392" d="M749.881,427.205l-5.073-2.822s-1.088,1.632-1.976,2.684c-1.711,2.03-9.917,3.5-9.917,6.379,0,1.453,3.056,2.759,5.551,2.858a17,17,0,0,0,6.01-.829c1.467-.48,4.826-1.847,5.358-2.744a4.144,4.144,0,0,0,.2-3.363C750.292,427.763,749.881,427.205,749.881,427.205Z" transform="translate(-668.821 -145.083)" fill="#f0f0f0"/>
      <path id="Path_638393" data-name="Path 638393" d="M739.012,427.13a8.5,8.5,0,0,0,2.949,2.83c1.086.6,4.25-.529,4.25-.529a21.932,21.932,0,0,0,.123-3.928l-6.81-1.221A2.488,2.488,0,0,1,739.012,427.13Z" transform="translate(-665.002 -145.146)" fill="#fcd2c5"/>
      <path id="Path_638394" data-name="Path 638394" d="M735.286,325.429c4.053,1.776,21.79,3.587,34.011,2.785v31.919c-2.381,1.877-16.293,38.053-22.3,58.928-.2.687,8.7,62.049,8.7,68.607-2.481,2.738-7.414.054-7.48-.215,0,0-19.227-31.071-22.317-68.608C722.3,375.239,734.8,328.927,735.286,325.429Z" transform="translate(-673.625 -207.188)" fill="#4d3782"/>
      <path id="Path_638395" data-name="Path 638395" d="M773.283,427.27l-5.278-2.417s-.956,1.712-1.76,2.832c-1.547,2.157-9.611,4.264-9.385,7.135.114,1.449,3.263,2.511,5.756,2.414s4.658-.407,5.925-1.3c1.581-1.108,4.668-2.22,5.128-3.156a4.146,4.146,0,0,0-.067-3.367C773.739,427.792,773.283,427.27,773.283,427.27Z" transform="translate(-653.823 -144.788)" fill="#f0f0f0"/>
      <path id="Path_638396" data-name="Path 638396" d="M762.629,427.769a8.507,8.507,0,0,0,3.162,2.588c1.129.511,4.195-.859,4.195-.859.138-1.621.06-4.046.06-4.046l-6.739-.731A3.588,3.588,0,0,1,762.629,427.769Z" transform="translate(-650.206 -144.872)" fill="#fcd2c5"/>
      <path id="Path_638397" data-name="Path 638397" d="M745.506,330.138c4.13-5.355,19.31-11.292,29.882-6.816,15.182,28.914-4.912,71.209-7.527,98.473,0,0,14.331,37.567,14.331,68.468-2.261,2.923-7.387.635-7.477.371,0-12.555-25.078-44.294-27.845-67.038C741.572,380.068,745.295,333.673,745.506,330.138Z" transform="translate(-661.852 -209.499)" fill="#4d3782"/>
      <path id="Path_638400" data-name="Path 638400" d="M730.224,305.568c.174,2.318,2.677,11.787,2.815,26.165.4,42.264-9.767,82.145-11.13,93.226,2.484,16.6,39.644,24.113,62.021,13.771l4.54-22.64,1.264,21.449c1.446-.269,4.523-.347,5.69-.513,4.121-66.981,7.957-143.063-22.989-156.362-2.466-1.06-15.4-2.061-15.4-2.061s-5.179,5.112-8.793,5.623c-2.464.342-4.757-2.194-4.757-2.194s-8.77,3.3-10.343,4.359C727.071,290.469,729.69,298.594,730.224,305.568Z" transform="translate(-675.716 -236.575)" fill="#f3f4f9"/>
      <path id="Path_638401" data-name="Path 638401" d="M737.987,300.725s14.588-14.473,24.4-20.051a23.2,23.2,0,0,0-5.151-1.353l-5.379-.721s-5.172,5.127-8.781,5.628c-2.477.343-4.766-2.2-4.766-2.2a72.593,72.593,0,0,0-8.158,3.281C731.167,292.608,737.987,300.725,737.987,300.725Z" transform="translate(-670.55 -236.577)" fill="#4d3782"/>
      <g id="Group_11484" data-name="Group 11484" transform="translate(49.645 -14.171)">
        <path id="Path_638485" data-name="Path 638485" d="M577.971,274.421c.148.881,3.61,9.932,2.251,15.25,1.545,4.554,14.51,2.767,16.973-5.655-1.805-2.051-4.72-13.873-4.7-18.273C591.534,266.686,581.23,274.459,577.971,274.421Z" transform="translate(-563.657 -227.784)" fill="#e8bfb3"/>
        <path id="Path_638486" data-name="Path 638486" d="M584.484,259.1c-5.932.423-11.422,2.582-11.945,8.312-.187,2.053,3.181,19.861,13.13,21.236,4.208.583,11.008-7.425,10.669-12.183,0,0-.46-6.486-.466-6.552C595.421,263.6,590.851,258.642,584.484,259.1Z" transform="translate(-569.543 -235.007)" fill="#fcd2c5"/>
        <path id="Path_638487" data-name="Path 638487" d="M598.836,258.663c-11.637-8.639-21.29.479-21.8,3.525-9.844,3.346-5.57,17.844-.627,19.345-3.721-10.581,3.169-15.141,3.169-15.141,13.684-2.12,20.746,13.557,20.419,17.919C600,284.311,615.893,271.324,598.836,258.663Z" transform="translate(-571.096 -239.366)" fill="#444d98"/>
        <path id="Path_638488" data-name="Path 638488" d="M633.366,281.153c-4.468-2.569-7.547-2.727-12.037-14.019-14.9-37.456-42.184-11.552-38.27-1.713.964,2.419,4.024,3.55,5.219.3,2.017-5.488,13.034-13.3,13.3,12.312.069,6.755-5.438,17.236,15.518,22.852,18.961,5.082,7.174,13.059,9.518,17.433C632.627,329.553,655.425,293.837,633.366,281.153Z" transform="translate(-558.554 -247.51)" fill="#444d98"/>
        <path id="Path_638489" data-name="Path 638489" d="M586.932,255.193a3.935,3.935,0,0,0-2.419-.271,5.083,5.083,0,0,0-2.8,1.886c4.381.791,8.354,4.158,8.354,4.158C590.711,258.824,590.334,256.652,586.932,255.193Z" transform="translate(-559.604 -239.581)" fill="#4d3782"/>
        <path id="Path_638496" data-name="Path 638496" d="M584.757,263.117a5.4,5.4,0,0,0-2.495,1.274,77.664,77.664,0,0,0,3.752,6.825,5.693,5.693,0,0,0,2.594-4.887C588.316,264.71,586.379,262.823,584.757,263.117Z" transform="translate(-559.012 -230.658)" fill="#fcd2c5"/>
      </g>
      <path id="Path_638536" data-name="Path 638536" d="M511.829,422.627c4.133,2.12,21.913,42.294,18.888,43.593s-28.961-.434-31.121-.434-24.233-39.426-22.333-42.217c0,0-.05-1.446,2.124-2.448S508.043,420.681,511.829,422.627Z" transform="translate(-477.099 -344.538)" fill="#b2ebf2"/>
      <path id="Path_638537" data-name="Path 638537" d="M510.892,423.505c4.133,2.12,21.181,40.631,18.153,41.93S500.084,465,497.924,465s-22.046-39.766-19.883-42.361S505.559,420.767,510.892,423.505Z" transform="translate(-477.877 -343.61)" fill="#e0f7fa"/>
      <path id="Path_638538" data-name="Path 638538" d="M501.326,435.441S499.112,425.431,495.8,425c-2.307-.3-.955,3.963-.955,3.963a17.712,17.712,0,0,1-13.4-.434c-7.345-3.162,2.741,14.561,7.5,14.995s11.522,1.432,11.522,1.432Z" transform="translate(-453.039 -334.367)" fill="#fcd2c5"/>
      <path id="Path_638539" data-name="Path 638539" d="M498.3,440.346c-3.6,1.449-12.968-9.509-7.349-13.4S501.9,438.9,498.3,440.346Z" transform="translate(-485.746 -331.202)" fill="#fcd2c5"/>
      <path id="Path_638540" data-name="Path 638540" d="M519.624,422.243c1.536,14.08-2.374,60.123-8.217,60.915-10.995,1.492-48.129-13.262-48.129-13.262l-1.149-9.937s35.094,10.638,41.785,5.619c3-2.254-6.053-36.307-2.594-45.529C503.932,413.088,518.392,410.994,519.624,422.243Z" transform="translate(-415.856 -359.309)" fill="#fcd2c5"/>
      <path id="Path_638541" data-name="Path 638541" d="M1638.532-2788.771c7.956,1.673,10.931,4.7,10.66,13.672s-2.313,35.18-3.168,37.048-18.163-4.338-18.962-6.334-3.515-26.017-2.945-30.713S1630.575-2790.443,1638.532-2788.771Z" transform="translate(-1541.808 2840.443)" fill="#d2dee8"/>
      <path id="Path_638544" data-name="Path 638544" d="M152.855,84.194s-.748-4.6-1.867-4.751-11.062-.478-11.806,0,.669,4.307.669,4.307Z" transform="translate(-129.755 -6.774)" fill="#b2ebf2"/>
      <path id="Path_638545" data-name="Path 638545" d="M140.466,79.59a5.83,5.83,0,0,0-1.334,1.07l1.334,3.939,1.684-1.31S141.179,79.208,140.466,79.59Z" transform="translate(-119.193 -6.827)" fill="#8ed7e0"/>
      <path id="Path_638546" data-name="Path 638546" d="M1735.2-2763s-10.57-.835-10.75-.471.924,4.1.924,4.1,3.04-.082,5.441,0,5.746.324,5.746.324Z" transform="translate(-1715.252 2836.826)" fill="#7ccbd5"/>
    </g>
  </g>
</svg>
